<svg width="24" height="24" viewBox="0 0 24 24" fill="none" xmlns="http://www.w3.org/2000/svg">
<circle cx="12" cy="12" r="12" fill="#F6CE0E"/>
<path d="M11.6823 6.008C12.4289 6.008 13.0743 6.14667 13.6183 6.424C14.1623 6.69067 14.5729 7.05867 14.8503 7.528C15.1383 7.98667 15.2823 8.49867 15.2823 9.064C15.2823 9.65067 15.1543 10.216 14.8983 10.76C14.6529 11.304 14.2263 11.9173 13.6183 12.6C13.0209 13.2827 12.1463 14.1627 10.9943 15.24H15.5223L15.2663 17H8.40225V15.352C9.74625 14.008 10.7169 13.0053 11.3143 12.344C11.9116 11.6827 12.3329 11.1227 12.5783 10.664C12.8236 10.2053 12.9463 9.736 12.9463 9.256C12.9463 8.79733 12.8129 8.43467 12.5463 8.168C12.2796 7.90133 11.9223 7.768 11.4743 7.768C11.0796 7.768 10.7276 7.85867 10.4183 8.04C10.1089 8.21067 9.78358 8.49867 9.44225 8.904L8.08225 7.816C8.99958 6.61067 10.1996 6.008 11.6823 6.008Z" fill="#171717"/>
</svg>
