<svg width="21" height="21" viewBox="0 0 21 21" fill="none" xmlns="http://www.w3.org/2000/svg">
<path fill-rule="evenodd" clip-rule="evenodd" d="M16.031 14.617L20.314 18.899L18.899 20.314L14.617 16.031C13.0237 17.3082 11.042 18.0029 9 18C4.032 18 0 13.968 0 9C0 4.032 4.032 0 9 0C13.968 0 18 4.032 18 9C18.0029 11.042 17.3082 13.0237 16.031 14.617ZM14.025 13.8781C15.2941 12.573 16.0029 10.8235 16 9.00307C16 5.13507 12.867 2.00307 9.00003 2.00307C5.13203 2.00307 2.00003 5.13507 2.00003 9.00307C2.00003 12.8701 5.13203 16.0031 9.00003 16.0031C10.8205 16.0059 12.5699 15.2972 13.875 14.0281L14.025 13.8781ZM9.02129 7.28344C8.89589 6.40273 9.36728 5.54507 10.178 5.17886C8.42148 4.63809 6.5225 5.36386 5.57439 6.9383C4.62629 8.51274 4.87306 10.5306 6.17263 11.8302C7.4722 13.1298 9.49011 13.3766 11.0645 12.4285C12.639 11.4803 13.3648 9.58137 12.824 7.82486C12.4578 8.63557 11.6001 9.10695 10.7194 8.98156C9.8387 8.85617 9.14668 8.16414 9.02129 7.28344Z" fill="white"/>
</svg>
