<svg width="18" height="21" viewBox="0 0 18 21" fill="none" xmlns="http://www.w3.org/2000/svg">
<path d="M14.6579 0L11.8759 2.533C13.1709 2.92419 14.363 3.59807 15.3659 4.506C18.8779 7.706 18.8779 12.894 15.3659 16.094C12.7739 18.454 8.76788 19.956 3.34988 20.6L6.13188 18.067C4.83683 17.6758 3.64481 17.0019 2.64188 16.094C-0.870119 12.894 -0.891119 7.725 2.64188 4.506C5.23388 2.146 9.24088 0.644 14.6589 0H14.6579ZM9.00388 6.3C6.51888 6.3 4.50388 8.09 4.50388 10.3C4.50388 12.51 6.51888 14.3 9.00388 14.3C11.4889 14.3 13.5039 12.51 13.5039 10.3C13.5039 8.09 11.4889 6.3 9.00388 6.3Z" fill="#F6CE0E"/>
</svg>
