<svg width="20" height="19" viewBox="0 0 20 19" fill="none" xmlns="http://www.w3.org/2000/svg">
<path d="M4.596 10.406L8.13 13.942L6.717 15.356L8.132 16.771L6.718 18.185L4.243 15.71L1.414 18.539L0 17.125L2.829 14.295L0.354 11.821L1.768 10.407L3.182 11.82L4.595 10.406H4.596ZM0.546 0L4.092 0.00300002L15.909 11.821L17.324 10.407L18.738 11.821L16.264 14.296L19.092 17.125L17.678 18.539L14.849 15.71L12.374 18.185L10.96 16.771L12.374 15.356L0.549 3.531L0.546 0ZM15.003 0L18.546 0.00300002L18.548 3.526L14.495 7.578L10.959 4.043L15.003 0Z" fill="#F6CE0E"/>
</svg>
