<svg width="75" height="108" viewBox="0 0 75 108" fill="none" xmlns="http://www.w3.org/2000/svg">
<path d="M37.4968 107.5C29.9826 107.499 22.6418 105.241 16.4263 101.019C10.2109 96.7958 5.40732 90.8032 2.63854 83.8177C-0.130239 76.8321 -0.736549 69.1759 0.898221 61.8416C2.53299 54.5074 6.33344 47.8334 11.8068 42.685C18.5168 36.37 34.9968 25 32.4968 0C62.4968 20 77.4968 40 47.4968 70C52.4968 70 59.9968 70 72.4968 57.65C73.8468 61.515 74.9968 65.67 74.9968 70C74.9968 79.9456 71.0459 89.4839 64.0133 96.5165C56.9807 103.549 47.4424 107.5 37.4968 107.5Z" fill="url(#paint0_linear_276_1656)"/>
<defs>
<linearGradient id="paint0_linear_276_1656" x1="37.4984" y1="0" x2="37.4984" y2="107.5" gradientUnits="userSpaceOnUse">
<stop stop-color="#F10B0B"/>
<stop offset="1" stop-color="#600335" stop-opacity="0.37"/>
</linearGradient>
</defs>
</svg>
